<svg width="16" height="16" viewBox="0 0 16 16" fill="none" xmlns="http://www.w3.org/2000/svg">
<g clip-path="url(#clip0_25488_3)">
<mask id="mask0_25488_3" style="mask-type:luminance" maskUnits="userSpaceOnUse" x="0" y="0" width="16" height="16">
<path d="M16 0H0V16H16V0Z" fill="white"/>
</mask>
<g mask="url(#mask0_25488_3)">
<path fill-rule="evenodd" clip-rule="evenodd" d="M15.8045 0.195262C16.0648 0.455611 16.0648 0.87772 15.8045 1.13807L12.6591 4.28347C12.6535 4.28933 12.6477 4.29507 12.6419 4.30068L4.28544 12.6571C4.27979 12.663 4.27406 12.6687 4.26825 12.6743L1.13783 15.8047C0.877479 16.0651 0.455367 16.0651 0.195018 15.8047C-0.0653315 15.5444 -0.0653315 15.1223 0.195018 14.8619L2.82265 12.2343C1.94403 11.4271 1.29427 10.5237 0.848559 9.7866C0.578187 9.33947 0.379156 8.94733 0.24683 8.66473C0.180592 8.52333 0.130853 8.40887 0.0970633 8.32813C0.0801626 8.2878 0.067234 8.25587 0.0582096 8.23313L0.0475869 8.20607L0.0444519 8.19793L0.0434254 8.1952L0.043047 8.1942C0.043047 8.1942 0.0427584 8.19347 0.666479 7.95807L0.0492212 7.7062L0.0494901 7.70553L0.0501882 7.7038L0.0522265 7.69887L0.0588771 7.683C0.0644567 7.66973 0.072334 7.65127 0.0825246 7.62793C0.102901 7.58133 0.132555 7.51513 0.171613 7.43227C0.249681 7.26653 0.365615 7.03333 0.520488 6.755C0.829419 6.19987 1.29761 5.45759 1.93511 4.71233C3.2041 3.22885 5.20603 1.66667 7.99978 1.66667C9.63485 1.66667 11.0033 2.20369 12.1097 2.94721L14.8617 0.195262C15.1221 -0.0650874 15.5441 -0.0650874 15.8045 0.195262ZM6.44775 8.6092L8.60892 6.44799C8.42032 6.37391 8.21492 6.33333 7.99978 6.33333C7.07925 6.33333 6.33309 7.07953 6.33309 8C6.33309 8.21513 6.37366 8.42053 6.44775 8.6092ZM9.59685 5.46012C9.13445 5.16888 8.58652 5 7.99978 5C6.3429 5 4.99976 6.34315 4.99976 8C4.99976 8.58673 5.16864 9.13467 5.45987 9.59707L3.76644 11.2905C2.98899 10.5862 2.40091 9.777 1.98951 9.09667C1.74739 8.69627 1.57015 8.3466 1.45432 8.09927C1.43175 8.05107 1.41155 8.00687 1.39369 7.96693C1.46044 7.82693 1.55753 7.6334 1.68557 7.40333C1.96354 6.90387 2.38296 6.23997 2.94832 5.57904C4.08504 4.25018 5.74978 3 7.99978 3C9.21945 3 10.2631 3.36566 11.1455 3.91147L9.59685 5.46012Z" fill="#8D8D8D"/>
<path d="M0.0492213 7.70621L-0.0495605 7.94887L0.0427585 8.19347L0.666479 7.95807C0.0490057 7.70674 0.0492213 7.70621 0.0492213 7.70621Z" fill="#8D8D8D"/>
<path d="M13.7379 5.33118C14.0363 5.11554 14.4531 5.18264 14.6687 5.48106C15.0982 6.07542 15.4157 6.62528 15.6267 7.028C15.7323 7.22967 15.8117 7.3954 15.8654 7.51254C15.8923 7.57114 15.9128 7.6176 15.927 7.65047C15.9341 7.66694 15.9396 7.67994 15.9435 7.6894L15.9483 7.7008L15.9498 7.70447L15.9503 7.70574L15.9506 7.70654L15.3332 7.95807L15.9567 8.194L15.9565 8.19467L15.9558 8.19647L15.9539 8.20154L15.9475 8.21774C15.9423 8.23127 15.9348 8.25007 15.9251 8.2738C15.9057 8.32134 15.8775 8.38867 15.8403 8.473C15.7657 8.64154 15.6546 8.87867 15.5051 9.1616C15.2067 9.72594 14.7511 10.4806 14.1213 11.2385C12.8655 12.7495 10.8619 14.3333 7.99987 14.3333C7.41807 14.3333 6.8686 14.2675 6.35157 14.1485C5.99276 14.066 5.7688 13.7082 5.85135 13.3494C5.9339 12.9906 6.2917 12.7666 6.65051 12.8491C7.07034 12.9457 7.51954 13 7.99987 13C10.3166 13 11.9796 11.7295 13.0959 10.3863C13.6521 9.71694 14.0587 9.04447 14.3263 8.53847C14.4497 8.30507 14.5425 8.1088 14.606 7.96694C14.5644 7.87967 14.511 7.77154 14.4455 7.6466C14.2575 7.28774 13.9727 6.79434 13.588 6.262C13.3723 5.96358 13.4395 5.54684 13.7379 5.33118Z" fill="#8D8D8D"/>
<path d="M15.9565 8.19399C15.9565 8.19399 15.9567 8.19346 15.333 7.95806C15.9505 7.70673 15.9504 7.70653 15.9504 7.70653L16.0491 7.94886L15.9565 8.19399Z" fill="#8D8D8D"/>
</g>
</g>
<defs>
<clipPath id="clip0_25488_3">
<rect width="16" height="16" fill="white"/>
</clipPath>
</defs>
</svg>
